<?xml version="1.0" standalone="no"?>
<!DOCTYPE svg PUBLIC "-//W3C//DTD SVG 20010904//EN"
 "http://www.w3.org/TR/2001/REC-SVG-20010904/DTD/svg10.dtd">
<svg version="1.0" xmlns="http://www.w3.org/2000/svg"
 width="512.000000pt" height="512.000000pt" viewBox="0 0 512.000000 512.000000"
 preserveAspectRatio="xMidYMid meet">
<metadata>
Created by potrace 1.11, written by Peter Selinger 2001-2013
</metadata>
<g transform="translate(0.000000,512.000000) scale(0.100000,-0.100000)"
fill="#000000" stroke="none">
<path d="M580 4474 c0 -349 2 -634 4 -634 6 0 1266 1256 1266 1263 0 3 -286 6
-635 6 l-635 -1 0 -634z"/>
<path d="M1846 3818 l-1266 -1261 0 -640 0 -640 798 796 c438 438 1201 1198
1695 1689 493 491 897 896 897 899 0 3 -28 28 -62 55 -166 132 -349 234 -538
298 -73 24 -228 66 -248 66 -5 0 -579 -568 -1276 -1262z"/>
<path d="M4000 3413 c-376 -375 -1790 -1787 -1790 -1788 0 0 156 1 347 1 394
1 447 5 623 42 315 67 621 234 851 464 46 46 93 95 104 109 11 13 36 45 56 69
168 211 310 548 346 825 10 77 10 371 1 452 -9 75 -57 281 -66 286 -4 2 -216
-205 -472 -460z"/>
<path d="M1223 646 c-348 -347 -633 -634 -633 -637 0 -3 286 -6 635 -6 l635 0
0 638 c0 352 -1 639 -2 638 -2 -1 -288 -285 -635 -633z"/>
</g>
</svg>
